Geo-Regular.ufo
<glyph name="exclam" format="1">
  <advance width="239"/>
  <unicode hex="0021"/>
  <outline>
    <contour>
      <point x="158" y="226" type="line"/>
      <point x="158" y="676" type="line"/>
      <point x="82" y="676" type="line"/>
      <point x="82" y="225" type="line"/>
    </contour>
    <contour>
      <point x="158" y="0" type="line"/>
      <point x="158" y="133" type="line"/>
      <point x="82" y="133" type="line"/>
      <point x="82" y="0" type="line"/>
    </contour>
  </outline>
</glyph>
<glyph name="numbersign" format="1">
  <advance width="419"/>
  <unicode hex="0023"/>
  <outline>
    <contour>
      <point x="247" y="410" type="line"/>
      <point x="247" y="493" type="line"/>
      <point x="183" y="493" type="line"/>
      <point x="183" y="410" type="line"/>
    </contour>
    <contour>
      <point x="247" y="287" type="line"/>
      <point x="247" y="339" type="line"/>
      <point x="184" y="339" type="line"/>
      <point x="184" y="287" type="line"/>
      <point x="103" y="287" type="line"/>
      <point x="103" y="339" type="line"/>
      <point x="41" y="339" type="line"/>
      <point x="41" y="410" type="line"/>
      <point x="103" y="410" type="line"/>
      <point x="103" y="493" type="line"/>
      <point x="41" y="493" type="line"/>
      <point x="41" y="563" type="line"/>
      <point x="102" y="563" type="line"/>
      <point x="102" y="636" type="line"/>
      <point x="183" y="636" type="line"/>
      <point x="183" y="563" type="line"/>
      <point x="246" y="563" type="line"/>
      <point x="246" y="636" type="line"/>
      <point x="327" y="636" type="line"/>
      <point x="327" y="563" type="line"/>
      <point x="379" y="563" type="line"/>
      <point x="379" y="493" type="line"/>
      <point x="327" y="493" type="line"/>
      <point x="327" y="410" type="line"/>
      <point x="379" y="410" type="line"/>
      <point x="379" y="339" type="line"/>
      <point x="328" y="339" type="line"/>
      <point x="328" y="287" type="line"/>
    </contour>
  </outline>
</glyph>
<glyph name="dollar" format="1">
  <advance width="481"/>
  <unicode hex="0024"/>
  <outline>
    <contour>
      <point x="275" y="75" type="line"/>
      <point x="319" y="75" type="line"/>
      <point x="319" y="170" type="line"/>
      <point x="275" y="176" type="line"/>
    </contour>
    <contour>
      <point x="204" y="376" type="line"/>
      <point x="162" y="376" type="line"/>
      <point x="162" y="276" type="line"/>
      <point x="204" y="270" type="line"/>
    </contour>
    <contour>
      <point x="275" y="563" type="line"/>
      <point x="275" y="451" type="line"/>
      <point x="399" y="451" type="line"/>
      <point x="399" y="328" type="line"/>
      <point x="324" y="328" type="line"/>
      <point x="324" y="376" type="line"/>
      <point x="275" y="376" type="line"/>
      <point x="275" y="260" type="line"/>
      <point x="397" y="243" type="line"/>
      <point x="397" y="1" type="line"/>
      <point x="275" y="1" type="line"/>
      <point x="275" y="-82" type="line"/>
      <point x="204" y="-82" type="line"/>
      <point x="204" y="0" type="line"/>
      <point x="82" y="0" type="line"/>
      <point x="82" y="113" type="line"/>
      <point x="158" y="113" type="line"/>
      <point x="158" y="75" type="line"/>
      <point x="204" y="75" type="line"/>
      <point x="204" y="187" type="line"/>
      <point x="82" y="205" type="line"/>
      <point x="82" y="451" type="line"/>
      <point x="204" y="451" type="line"/>
      <point x="204" y="563" type="line"/>
    </contour>
  </outline>
</glyph>
<glyph name="percent" format="1">
  <advance width="538"/>
  <unicode hex="0025"/>
  <outline>
    <contour>
      <point x="397" y="589" type="line"/>
      <point x="59" y="4" type="line"/>
      <point x="125" y="-34" type="line"/>
      <point x="463" y="551" type="line"/>
    </contour>
    <contour>
      <point x="20" y="358" type="line"/>
      <point x="20" y="567" type="line"/>
      <point x="211" y="567" type="line"/>
      <point x="211" y="358" type="line"/>
    </contour>
    <contour>
      <point x="156" y="523" type="line"/>
      <point x="79" y="522" type="line"/>
      <point x="79" y="401" type="line"/>
      <point x="156" y="401" type="line"/>
    </contour>
    <contour>
      <point x="328" y="0" type="line"/>
      <point x="328" y="209" type="line"/>
      <point x="518" y="209" type="line"/>
      <point x="518" y="0" type="line"/>
    </contour>
    <contour>
      <point x="463" y="164" type="line"/>
      <point x="386" y="164" type="line"/>
      <point x="386" y="43" type="line"/>
      <point x="463" y="43" type="line"/>
    </contour>
  </outline>
</glyph>
<glyph name="ampersand" format="1">
  <advance width="512"/>
  <unicode hex="0026"/>
  <outline>
    <contour>
      <point x="379" y="410" type="line"/>
      <point x="379" y="328" type="line"/>
      <point x="430" y="328" type="line"/>
      <point x="430" y="257" type="line"/>
      <point x="379" y="257" type="line"/>
      <point x="379" y="0" type="line"/>
      <point x="82" y="0" type="line"/>
      <point x="82" y="328" type="line"/>
      <point x="154" y="328" type="line"/>
      <point x="154" y="573" type="line"/>
      <point x="324" y="573" type="line"/>
      <point x="324" y="502" type="line"/>
      <point x="233" y="502" type="line"/>
      <point x="233" y="328" type="line"/>
      <point x="303" y="328" type="line"/>
      <point x="303" y="410" type="line"/>
    </contour>
    <contour>
      <point x="303" y="77" type="line"/>
      <point x="303" y="256" type="line"/>
      <point x="162" y="256" type="line"/>
      <point x="162" y="77" type="line"/>
    </contour>
  </outline>
</glyph>
<glyph name="quotesingle" format="1">
  <advance width="116"/>
  <unicode hex="0027"/>
  <outline>
    <contour>
      <point x="20" y="676" type="line"/>
      <point x="20" y="481" type="line"/>
      <point x="96" y="481" type="line"/>
      <point x="96" y="676" type="line"/>
    </contour>
  </outline>
</glyph>
<glyph name="parenleft" format="1">
  <advance width="239"/>
  <unicode hex="0028"/>
  <outline>
    <contour>
      <point x="228" y="-113" type="line"/>
      <point x="82" y="-113" type="line"/>
      <point x="82" y="676" type="line"/>
      <point x="228" y="676" type="line"/>
      <point x="228" y="594" type="line"/>
      <point x="158" y="594" type="line"/>
      <point x="158" y="-31" type="line"/>
      <point x="228" y="-31" type="line"/>
    </contour>
  </outline>
</glyph>
<glyph name="parenright" format="1">
  <advance width="239"/>
  <unicode hex="0029"/>
  <outline>
    <contour>
      <point x="82" y="-113" type="line"/>
      <point x="228" y="-113" type="line"/>
      <point x="228" y="676" type="line"/>
      <point x="82" y="676" type="line"/>
      <point x="82" y="594" type="line"/>
      <point x="153" y="594" type="line"/>
      <point x="153" y="-31" type="line"/>
      <point x="82" y="-31" type="line"/>
    </contour>
  </outline>
</glyph>
<glyph name="plus" format="1">
  <advance width="491"/>
  <unicode hex="002B"/>
  <outline>
    <contour>
      <point x="200" y="0" type="line"/>
      <point x="200" y="205" type="line"/>
      <point x="26" y="205" type="line"/>
      <point x="26" y="276" type="line"/>
      <point x="200" y="276" type="line"/>
      <point x="200" y="451" type="line"/>
      <point x="282" y="451" type="line"/>
      <point x="282" y="276" type="line"/>
      <point x="466" y="276" type="line"/>
      <point x="466" y="205" type="line"/>
      <point x="282" y="205" type="line"/>
      <point x="282" y="0" type="line"/>
    </contour>
  </outline>
</glyph>
<glyph name="hyphen" format="1">
  <advance width="327"/>
  <unicode hex="002D"/>
  <outline>
    <contour>
      <point x="302" y="205" type="line"/>
      <point x="302" y="276" type="line"/>
      <point x="26" y="276" type="line"/>
      <point x="26" y="205" type="line"/>
    </contour>
  </outline>
</glyph>
<glyph name="slash" format="1">
  <advance width="239"/>
  <unicode hex="002F"/>
  <outline>
    <contour>
      <point x="169" y="675" type="line"/>
      <point x="-3" y="-136" type="line"/>
      <point x="71" y="-153" type="line"/>
      <point x="243" y="658" type="line"/>
    </contour>
  </outline>
</glyph>
<glyph name="zero" format="1">
  <advance width="512"/>
  <unicode hex="0030"/>
  <outline>
    <contour>
      <point x="97" y="0" type="line"/>
      <point x="97" y="451" type="line"/>
      <point x="415" y="451" type="line"/>
      <point x="415" y="0" type="line"/>
    </contour>
    <contour>
      <point x="339" y="377" type="line"/>
      <point x="177" y="376" type="line"/>
      <point x="177" y="72" type="line"/>
      <point x="339" y="72" type="line"/>
    </contour>
  </outline>
</glyph>
<glyph name="two" format="1">
  <advance width="512"/>
  <unicode hex="0032"/>
  <outline>
    <contour>
      <point x="415" y="75" type="line"/>
      <point x="415" y="0" type="line"/>
      <point x="99" y="1" type="line"/>
      <point x="99" y="79" type="line"/>
      <point x="335" y="276" type="line"/>
      <point x="335" y="376" type="line"/>
      <point x="173" y="376" type="line"/>
      <point x="173" y="287" type="line"/>
      <point x="97" y="287" type="line"/>
      <point x="97" y="451" type="line"/>
      <point x="415" y="451" type="line"/>
      <point x="415" y="225" type="line"/>
      <point x="218" y="75" type="line"/>
    </contour>
  </outline>
</glyph>
<glyph name="three" format="1">
  <advance width="512"/>
  <unicode hex="0033"/>
  <outline>
    <contour>
      <point x="334" y="196" type="line"/>
      <point x="334" y="75" type="line"/>
      <point x="173" y="75" type="line"/>
      <point x="173" y="133" type="line"/>
      <point x="97" y="133" type="line"/>
      <point x="97" y="0" type="line"/>
      <point x="415" y="0" type="line"/>
      <point x="415" y="256" type="line"/>
      <point x="299" y="256" type="line"/>
      <point x="413" y="372" type="line"/>
      <point x="413" y="450" type="line"/>
      <point x="97" y="451" type="line"/>
      <point x="97" y="376" type="line"/>
      <point x="294" y="376" type="line"/>
      <point x="179" y="256" type="line"/>
      <point x="179" y="196" type="line"/>
    </contour>
  </outline>
</glyph>
<glyph name="four" format="1">
  <advance width="512"/>
  <unicode hex="0034"/>
  <outline>
    <contour>
      <point x="302" y="75" type="line"/>
      <point x="302" y="294" type="line"/>
      <point x="175" y="75" type="line"/>
    </contour>
    <contour>
      <point x="382" y="-102" type="line"/>
      <point x="302" y="-102" type="line"/>
      <point x="302" y="0" type="line"/>
      <point x="77" y="1" type="line"/>
      <point x="77" y="79" type="line"/>
      <point x="302" y="451" type="line"/>
      <point x="382" y="451" type="line"/>
      <point x="382" y="75" type="line"/>
      <point x="443" y="75" type="line"/>
      <point x="443" y="0" type="line"/>
      <point x="382" y="0" type="line"/>
    </contour>
  </outline>
</glyph>
<glyph name="five" format="1">
  <advance width="512"/>
  <unicode hex="0035"/>
  <outline>
    <contour>
      <point x="334" y="196" type="line"/>
      <point x="334" y="75" type="line"/>
      <point x="173" y="75" type="line"/>
      <point x="173" y="133" type="line"/>
      <point x="97" y="133" type="line"/>
      <point x="97" y="0" type="line"/>
      <point x="415" y="0" type="line"/>
      <point x="415" y="276" type="line"/>
      <point x="185" y="276" type="line"/>
      <point x="185" y="372" type="line"/>
      <point x="415" y="373" type="line"/>
      <point x="415" y="450" type="line"/>
      <point x="97" y="450" type="line"/>
      <point x="97" y="196" type="line"/>
    </contour>
  </outline>
</glyph>
<glyph name="six" format="1">
  <advance width="512"/>
  <unicode hex="0036"/>
  <outline>
    <contour>
      <point x="97" y="450" type="line"/>
      <point x="415" y="450" type="line"/>
      <point x="415" y="373" type="line"/>
      <point x="173" y="372" type="line"/>
      <point x="173" y="276" type="line"/>
      <point x="415" y="276" type="line"/>
      <point x="415" y="0" type="line"/>
      <point x="97" y="0" type="line"/>
    </contour>
    <contour>
      <point x="334" y="196" type="line"/>
      <point x="173" y="196" type="line"/>
      <point x="173" y="75" type="line"/>
      <point x="334" y="75" type="line"/>
    </contour>
  </outline>
</glyph>
<glyph name="seven" format="1">
  <advance width="512"/>
  <unicode hex="0037"/>
  <outline>
    <contour>
      <point x="414" y="372" type="line"/>
      <point x="414" y="450" type="line"/>
      <point x="98" y="450" type="line"/>
      <point x="98" y="372" type="line"/>
      <point x="326" y="372" type="line"/>
      <point x="150" y="1" type="line"/>
      <point x="260" y="0" type="line"/>
    </contour>
  </outline>
</glyph>
<glyph name="nine" format="1">
  <advance width="512"/>
  <unicode hex="0039"/>
  <outline>
    <contour>
      <point x="415" y="0" type="line"/>
      <point x="97" y="1" type="line"/>
      <point x="97" y="78" type="line"/>
      <point x="339" y="79" type="line"/>
      <point x="339" y="174" type="line"/>
      <point x="97" y="174" type="line"/>
      <point x="97" y="451" type="line"/>
      <point x="415" y="451" type="line"/>
    </contour>
    <contour>
      <point x="178" y="255" type="line"/>
      <point x="339" y="255" type="line"/>
      <point x="339" y="376" type="line"/>
      <point x="178" y="376" type="line"/>
    </contour>
  </outline>
</glyph>
<glyph name="colon" format="1">
  <advance width="239"/>
  <unicode hex="003A"/>
  <outline>
    <contour>
      <point x="82" y="123" type="line"/>
      <point x="82" y="0" type="line"/>
      <point x="158" y="0" type="line"/>
      <point x="158" y="123" type="line"/>
    </contour>
    <contour>
      <point x="82" y="451" type="line"/>
      <point x="82" y="328" type="line"/>
      <point x="158" y="328" type="line"/>
      <point x="158" y="451" type="line"/>
    </contour>
  </outline>
</glyph>
<glyph name="semicolon" format="1">
  <advance width="239"/>
  <unicode hex="003B"/>
  <outline>
    <contour>
      <point x="82" y="451" type="line"/>
      <point x="82" y="328" type="line"/>
      <point x="158" y="328" type="line"/>
      <point x="158" y="451" type="line"/>
    </contour>
    <contour>
      <point x="51" y="-82" type="line"/>
      <point x="102" y="123" type="line"/>
      <point x="178" y="123" type="line"/>
      <point x="127" y="-82" type="line"/>
    </contour>
  </outline>
</glyph>
<glyph name="less" format="1">
  <advance width="512"/>
  <unicode hex="003C"/>
  <outline>
    <contour>
      <point x="10" y="236" type="line"/>
      <point x="438" y="467" type="line"/>
      <point x="502" y="399" type="line"/>
      <point x="177" y="236" type="line"/>
      <point x="502" y="72" type="line"/>
      <point x="438" y="4" type="line"/>
    </contour>
  </outline>
</glyph>
<glyph name="equal" format="1">
  <advance width="491"/>
  <unicode hex="003D"/>
  <outline>
    <contour>
      <point x="466" y="246" type="line"/>
      <point x="466" y="317" type="line"/>
      <point x="26" y="317" type="line"/>
      <point x="26" y="246" type="line"/>
    </contour>
    <contour>
      <point x="466" y="123" type="line"/>
      <point x="466" y="195" type="line"/>
      <point x="26" y="195" type="line"/>
      <point x="26" y="123" type="line"/>
    </contour>
  </outline>
</glyph>
<glyph name="greater" format="1">
  <advance width="512"/>
  <unicode hex="003E"/>
  <outline>
    <contour>
      <point x="502" y="236" type="line"/>
      <point x="74" y="467" type="line"/>
      <point x="10" y="399" type="line"/>
      <point x="335" y="236" type="line"/>
      <point x="10" y="72" type="line"/>
      <point x="74" y="4" type="line"/>
    </contour>
  </outline>
</glyph>
<glyph name="question" format="1">
  <advance width="481"/>
  <unicode hex="003F"/>
  <outline>
    <contour>
      <point x="82" y="635" type="line"/>
      <point x="397" y="635" type="line"/>
      <point x="397" y="287" type="line"/>
      <point x="262" y="287" type="line"/>
      <point x="262" y="195" type="line"/>
      <point x="184" y="195" type="line"/>
      <point x="184" y="357" type="line"/>
      <point x="324" y="357" type="line"/>
      <point x="324" y="561" type="line"/>
      <point x="81" y="561" type="line"/>
    </contour>
    <contour>
      <point x="184" y="123" type="line"/>
      <point x="184" y="0" type="line"/>
      <point x="260" y="0" type="line"/>
      <point x="260" y="123" type="line"/>
    </contour>
  </outline>
</glyph>
<glyph name="at" format="1">
  <advance width="583"/>
  <unicode hex="0040"/>
  <outline>
    <contour>
      <point x="502" y="-154" type="line"/>
      <point x="82" y="-154" type="line"/>
      <point x="82" y="451" type="line"/>
      <point x="502" y="451" type="line"/>
      <point x="502" y="0" type="line"/>
      <point x="248" y="0" type="line"/>
      <point x="248" y="266" type="line"/>
      <point x="422" y="266" type="line"/>
      <point x="422" y="379" type="line"/>
      <point x="163" y="379" type="line"/>
      <point x="163" y="-74" type="line"/>
      <point x="502" y="-74" type="line"/>
    </contour>
    <contour>
      <point x="422" y="74" type="line"/>
      <point x="422" y="193" type="line"/>
      <point x="322" y="193" type="line"/>
      <point x="322" y="74" type="line"/>
    </contour>
  </outline>
</glyph>
<glyph name="A" format="1">
  <advance width="481"/>
  <unicode hex="0041"/>
  <outline>
    <contour>
      <point x="158" y="502" type="line"/>
      <point x="158" y="328" type="line"/>
      <point x="319" y="328" type="line"/>
      <point x="319" y="502" type="line"/>
    </contour>
    <contour>
      <point x="399" y="0" type="line"/>
      <point x="319" y="0" type="line"/>
      <point x="319" y="256" type="line"/>
      <point x="158" y="256" type="line"/>
      <point x="158" y="0" type="line"/>
      <point x="82" y="0" type="line"/>
      <point x="82" y="573" type="line"/>
      <point x="399" y="573" type="line"/>
    </contour>
  </outline>
</glyph>
<glyph name="B" format="1">
  <advance width="481"/>
  <unicode hex="0042"/>
  <outline>
    <contour>
      <point x="158" y="502" type="line"/>
      <point x="158" y="338" type="line"/>
      <point x="279" y="338" type="line"/>
      <point x="279" y="502" type="line"/>
    </contour>
    <contour>
      <point x="82" y="0" type="line"/>
      <point x="82" y="573" type="line"/>
      <point x="358" y="573" type="line"/>
      <point x="358" y="338" type="line"/>
      <point x="399" y="338" type="line"/>
      <point x="399" y="0" type="line"/>
    </contour>
    <contour>
      <point x="158" y="77" type="line"/>
      <point x="319" y="77" type="line"/>
      <point x="319" y="266" type="line"/>
      <point x="158" y="266" type="line"/>
    </contour>
  </outline>
</glyph>
<glyph name="C" format="1">
  <advance width="481"/>
  <unicode hex="0043"/>
  <outline>
    <contour>
      <point x="324" y="499" type="line"/>
      <point x="162" y="499" type="line"/>
      <point x="162" y="72" type="line"/>
      <point x="391" y="72" type="line"/>
      <point x="391" y="0" type="line"/>
      <point x="82" y="0" type="line"/>
      <point x="82" y="573" type="line"/>
      <point x="399" y="573" type="line"/>
      <point x="399" y="410" type="line"/>
      <point x="324" y="410" type="line"/>
    </contour>
  </outline>
</glyph>
<glyph name="D" format="1">
  <advance width="481"/>
  <unicode hex="0044"/>
  <outline>
    <contour>
      <point x="158" y="78" type="line"/>
      <point x="289" y="78" type="line"/>
      <point x="309" y="102" type="line"/>
      <point x="309" y="471" type="line"/>
      <point x="289" y="501" type="line"/>
      <point x="158" y="501" type="line"/>
    </contour>
    <contour>
      <point x="82" y="0" type="line"/>
      <point x="82" y="573" type="line"/>
      <point x="307" y="573" type="line"/>
      <point x="399" y="440" type="line"/>
      <point x="399" y="123" type="line"/>
      <point x="297" y="0" type="line"/>
    </contour>
  </outline>
</glyph>
<glyph name="J" format="1">
  <advance width="230"/>
  <unicode hex="004A"/>
  <outline>
    <contour>
      <point x="102" y="573" type="line"/>
      <point x="179" y="573" type="line"/>
      <point x="179" y="-154" type="line"/>
      <point x="0" y="-154" type="line"/>
      <point x="0" y="-80" type="line"/>
      <point x="102" y="-80" type="line"/>
    </contour>
  </outline>
</glyph>
<glyph name="K" format="1">
  <advance width="481"/>
  <unicode hex="004B"/>
  <outline>
    <contour>
      <point x="430" y="0" type="line"/>
      <point x="230" y="302" type="line"/>
      <point x="420" y="573" type="line"/>
      <point x="311" y="573" type="line"/>
      <point x="158" y="328" type="line"/>
      <point x="158" y="573" type="line"/>
      <point x="82" y="573" type="line"/>
      <point x="82" y="0" type="line"/>
      <point x="158" y="0" type="line"/>
      <point x="158" y="256" type="line"/>
      <point x="173" y="256" type="line"/>
      <point x="312" y="0" type="line"/>
    </contour>
  </outline>
</glyph>
<glyph name="R" format="1">
  <advance width="481"/>
  <unicode hex="0052"/>
  <outline>
    <contour>
      <point x="430" y="0" type="line"/>
      <point x="330" y="0" type="line"/>
      <point x="190" y="256" type="line"/>
      <point x="158" y="256" type="line"/>
      <point x="159" y="0" type="line"/>
      <point x="82" y="0" type="line"/>
      <point x="82" y="573" type="line"/>
      <point x="379" y="573" type="line"/>
      <point x="379" y="256" type="line"/>
      <point x="291" y="256" type="line"/>
    </contour>
    <contour>
      <point x="299" y="328" type="line"/>
      <point x="299" y="502" type="line"/>
      <point x="158" y="502" type="line"/>
      <point x="158" y="328" type="line"/>
    </contour>
  </outline>
</glyph>
<glyph name="T" format="1">
  <advance width="481"/>
  <unicode hex="0054"/>
  <outline>
    <contour>
      <point x="281" y="0" type="line"/>
      <point x="205" y="0" type="line"/>
      <point x="205" y="500" type="line"/>
      <point x="81" y="500" type="line"/>
      <point x="81" y="573" type="line"/>
      <point x="399" y="573" type="line"/>
      <point x="399" y="500" type="line"/>
      <point x="281" y="500" type="line"/>
    </contour>
  </outline>
</glyph>
<glyph name="U" format="1">
  <advance width="481"/>
  <unicode hex="0055"/>
  <outline>
    <contour>
      <point x="399" y="573" type="line"/>
      <point x="399" y="0" type="line"/>
      <point x="82" y="0" type="line"/>
      <point x="82" y="573" type="line"/>
      <point x="158" y="573" type="line"/>
      <point x="158" y="72" type="line"/>
      <point x="319" y="72" type="line"/>
      <point x="319" y="573" type="line"/>
    </contour>
  </outline>
</glyph>
<glyph name="Y" format="1">
  <advance width="481"/>
  <unicode hex="0059"/>
  <outline>
    <contour>
      <point x="399" y="573" type="line"/>
      <point x="399" y="0" type="line"/>
      <point x="82" y="0" type="line"/>
      <point x="82" y="72" type="line"/>
      <point x="319" y="72" type="line"/>
      <point x="319" y="184" type="line"/>
      <point x="84" y="184" type="line"/>
      <point x="84" y="573" type="line"/>
      <point x="158" y="573" type="line"/>
      <point x="158" y="258" type="line"/>
      <point x="319" y="258" type="line"/>
      <point x="319" y="573" type="line"/>
    </contour>
  </outline>
</glyph>
<glyph name="Z" format="1">
  <advance width="481"/>
  <unicode hex="005A"/>
  <outline>
    <contour>
      <point x="182" y="72" type="line"/>
      <point x="391" y="72" type="line"/>
      <point x="391" y="0" type="line"/>
      <point x="82" y="0" type="line"/>
      <point x="82" y="72" type="line"/>
      <point x="319" y="499" type="line"/>
      <point x="82" y="499" type="line"/>
      <point x="82" y="573" type="line"/>
      <point x="399" y="573" type="line"/>
      <point x="399" y="496" type="line"/>
    </contour>
  </outline>
</glyph>
<glyph name="backslash" format="1">
  <advance width="239"/>
  <unicode hex="005C"/>
  <outline>
    <contour>
      <point x="71" y="675" type="line"/>
      <point x="243" y="-136" type="line"/>
      <point x="169" y="-153" type="line"/>
      <point x="-3" y="658" type="line"/>
    </contour>
  </outline>
</glyph>
<glyph name="bracketright" format="1">
  <advance width="228"/>
  <unicode hex="005D"/>
  <outline>
    <contour>
      <point x="-20" y="-195" type="line"/>
      <point x="228" y="-195" type="line"/>
      <point x="228" y="676" type="line"/>
      <point x="-20" y="676" type="line"/>
      <point x="-20" y="594" type="line"/>
      <point x="153" y="594" type="line"/>
      <point x="153" y="-113" type="line"/>
      <point x="-20" y="-113" type="line"/>
    </contour>
  </outline>
</glyph>
<glyph name="underscore" format="1">
  <advance width="491"/>
  <unicode hex="005F"/>
  <outline>
    <contour>
      <point x="466" y="-113" type="line"/>
      <point x="466" y="-41" type="line"/>
      <point x="26" y="-41" type="line"/>
      <point x="26" y="-113" type="line"/>
    </contour>
  </outline>
</glyph>
<glyph name="grave" format="1">
  <advance width="481"/>
  <unicode hex="0060"/>
  <outline>
    <contour>
      <point x="137" y="676" type="line"/>
      <point x="342" y="543" type="line"/>
      <point x="287" y="481" type="line"/>
      <point x="82" y="614" type="line"/>
    </contour>
  </outline>
</glyph>
<glyph name="a" format="1">
  <advance width="481"/>
  <unicode hex="0061"/>
  <outline>
    <contour>
      <point x="319" y="266" type="line"/>
      <point x="319" y="379" type="line"/>
      <point x="82" y="379" type="line"/>
      <point x="82" y="451" type="line"/>
      <point x="399" y="451" type="line"/>
      <point x="399" y="0" type="line"/>
      <point x="84" y="0" type="line"/>
      <point x="84" y="266" type="line"/>
    </contour>
    <contour>
      <point x="319" y="193" type="line"/>
      <point x="158" y="193" type="line"/>
      <point x="158" y="74" type="line"/>
      <point x="319" y="74" type="line"/>
    </contour>
  </outline>
</glyph>
<glyph name="b" format="1">
  <advance width="481"/>
  <unicode hex="0062"/>
  <outline>
    <contour>
      <point x="158" y="451" type="line"/>
      <point x="399" y="451" type="line"/>
      <point x="399" y="0" type="line"/>
      <point x="82" y="0" type="line"/>
      <point x="82" y="676" type="line"/>
      <point x="158" y="676" type="line"/>
    </contour>
    <contour>
      <point x="158" y="74" type="line"/>
      <point x="319" y="75" type="line"/>
      <point x="319" y="379" type="line"/>
      <point x="158" y="379" type="line"/>
    </contour>
  </outline>
</glyph>
<glyph name="c" format="1">
  <advance width="481"/>
  <unicode hex="0063"/>
  <outline>
    <contour>
      <point x="324" y="376" type="line"/>
      <point x="162" y="376" type="line"/>
      <point x="162" y="72" type="line"/>
      <point x="391" y="72" type="line"/>
      <point x="391" y="0" type="line"/>
      <point x="82" y="0" type="line"/>
      <point x="82" y="451" type="line"/>
      <point x="399" y="451" type="line"/>
      <point x="399" y="287" type="line"/>
      <point x="324" y="287" type="line"/>
    </contour>
  </outline>
</glyph>
<glyph name="d" format="1">
  <advance width="481"/>
  <unicode hex="0064"/>
  <outline>
    <contour>
      <point x="324" y="451" type="line"/>
      <point x="324" y="676" type="line"/>
      <point x="399" y="676" type="line"/>
      <point x="399" y="0" type="line"/>
      <point x="82" y="0" type="line"/>
      <point x="82" y="451" type="line"/>
    </contour>
    <contour>
      <point x="324" y="74" type="line"/>
      <point x="324" y="379" type="line"/>
      <point x="162" y="379" type="line"/>
      <point x="162" y="74" type="line"/>
    </contour>
  </outline>
</glyph>
<glyph name="f" format="1">
  <advance width="481"/>
  <unicode hex="0066"/>
  <outline>
    <contour>
      <point x="82" y="450" type="line"/>
      <point x="180" y="450" type="line"/>
      <point x="180" y="645" type="line"/>
      <point x="399" y="645" type="line"/>
      <point x="399" y="574" type="line"/>
      <point x="256" y="574" type="line"/>
      <point x="256" y="450" type="line"/>
      <point x="399" y="450" type="line"/>
      <point x="399" y="379" type="line"/>
      <point x="256" y="379" type="line"/>
      <point x="256" y="0" type="line"/>
      <point x="180" y="0" type="line"/>
      <point x="180" y="379" type="line"/>
      <point x="82" y="379" type="line"/>
    </contour>
  </outline>
</glyph>
<glyph name="g" format="1">
  <advance width="481"/>
  <unicode hex="0067"/>
  <outline>
    <contour>
      <point x="319" y="0" type="line"/>
      <point x="319" y="-113" type="line"/>
      <point x="82" y="-113" type="line"/>
      <point x="82" y="-184" type="line"/>
      <point x="399" y="-184" type="line"/>
      <point x="399" y="451" type="line"/>
      <point x="84" y="451" type="line"/>
      <point x="84" y="0" type="line"/>
    </contour>
    <contour>
      <point x="319" y="74" type="line"/>
      <point x="158" y="74" type="line"/>
      <point x="158" y="377" type="line"/>
      <point x="319" y="377" type="line"/>
    </contour>
  </outline>
</glyph>
<glyph name="i" format="1">
  <advance width="239"/>
  <unicode hex="0069"/>
  <outline>
    <contour>
      <point x="82" y="450" type="line"/>
      <point x="82" y="0" type="line"/>
      <point x="158" y="0" type="line"/>
      <point x="158" y="450" type="line"/>
    </contour>
    <contour>
      <point x="82" y="676" type="line"/>
      <point x="82" y="543" type="line"/>
      <point x="158" y="543" type="line"/>
      <point x="158" y="676" type="line"/>
    </contour>
  </outline>
</glyph>
<glyph name="t" format="1">
  <advance width="440"/>
  <unicode hex="0074"/>
  <outline>
    <contour>
      <point x="358" y="0" type="line"/>
      <point x="174" y="0" type="line"/>
      <point x="174" y="379" type="line"/>
      <point x="82" y="379" type="line"/>
      <point x="82" y="451" type="line"/>
      <point x="174" y="451" type="line"/>
      <point x="174" y="584" type="line"/>
      <point x="250" y="584" type="line"/>
      <point x="250" y="451" type="line"/>
      <point x="358" y="451" type="line"/>
      <point x="358" y="379" type="line"/>
      <point x="250" y="379" type="line"/>
      <point x="250" y="72" type="line"/>
      <point x="358" y="72" type="line"/>
    </contour>
  </outline>
</glyph>
<glyph name="v" format="1">
  <advance width="450"/>
  <unicode hex="0076"/>
  <outline>
    <contour>
      <point x="420" y="451" type="line"/>
      <point x="297" y="0" type="line"/>
      <point x="154" y="0" type="line"/>
      <point x="31" y="451" type="line"/>
      <point x="133" y="451" type="line"/>
      <point x="215" y="72" type="line"/>
      <point x="244" y="72" type="line"/>
      <point x="326" y="451" type="line"/>
    </contour>
  </outline>
</glyph>
<glyph name="w" format="1">
  <advance width="716"/>
  <unicode hex="0077"/>
  <outline>
    <contour>
      <point x="317" y="451" type="line"/>
      <point x="399" y="451" type="line"/>
      <point x="399" y="72" type="line"/>
      <point x="559" y="72" type="line"/>
      <point x="559" y="451" type="line"/>
      <point x="635" y="451" type="line"/>
      <point x="635" y="0" type="line"/>
      <point x="82" y="0" type="line"/>
      <point x="82" y="451" type="line"/>
      <point x="162" y="451" type="line"/>
      <point x="162" y="72" type="line"/>
      <point x="317" y="72" type="line"/>
    </contour>
  </outline>
</glyph>
<glyph name="x" format="1">
  <advance width="481"/>
  <unicode hex="0078"/>
  <outline>
    <contour>
      <point x="451" y="0" type="line"/>
      <point x="350" y="0" type="line"/>
      <point x="248" y="184" type="line"/>
      <point x="229" y="184" type="line"/>
      <point x="127" y="0" type="line"/>
      <point x="31" y="0" type="line"/>
      <point x="160" y="236" type="line"/>
      <point x="41" y="451" type="line"/>
      <point x="137" y="451" type="line"/>
      <point x="229" y="266" type="line"/>
      <point x="248" y="266" type="line"/>
      <point x="340" y="451" type="line"/>
      <point x="440" y="451" type="line"/>
      <point x="322" y="236" type="line"/>
    </contour>
  </outline>
</glyph>
<glyph name="y" format="1">
  <advance width="481"/>
  <unicode hex="0079"/>
  <outline>
    <contour>
      <point x="399" y="451" type="line"/>
      <point x="399" y="-184" type="line"/>
      <point x="82" y="-184" type="line"/>
      <point x="82" y="-113" type="line"/>
      <point x="319" y="-113" type="line"/>
      <point x="319" y="0" type="line"/>
      <point x="84" y="0" type="line"/>
      <point x="84" y="451" type="line"/>
      <point x="158" y="451" type="line"/>
      <point x="158" y="74" type="line"/>
      <point x="319" y="74" type="line"/>
      <point x="319" y="451" type="line"/>
    </contour>
  </outline>
</glyph>
<glyph name="z" format="1">
  <advance width="481"/>
  <unicode hex="007A"/>
  <outline>
    <contour>
      <point x="182" y="72" type="line"/>
      <point x="391" y="72" type="line"/>
      <point x="391" y="0" type="line"/>
      <point x="82" y="0" type="line"/>
      <point x="82" y="72" type="line"/>
      <point x="319" y="376" type="line"/>
      <point x="82" y="376" type="line"/>
      <point x="82" y="451" type="line"/>
      <point x="399" y="451" type="line"/>
      <point x="399" y="373" type="line"/>
    </contour>
  </outline>
</glyph>
<glyph name="braceleft" format="1">
  <advance width="338"/>
  <unicode hex="007B"/>
  <outline>
    <contour>
      <point x="0" y="296" type="line"/>
      <point x="111" y="296" type="line"/>
      <point x="111" y="676" type="line"/>
      <point x="359" y="676" type="line"/>
      <point x="359" y="594" type="line"/>
      <point x="186" y="594" type="line"/>
      <point x="186" y="-102" type="line"/>
      <point x="359" y="-102" type="line"/>
      <point x="359" y="-184" type="line"/>
      <point x="111" y="-184" type="line"/>
      <point x="111" y="215" type="line"/>
      <point x="0" y="215" type="line"/>
    </contour>
  </outline>
</glyph>
<glyph name="braceright" format="1">
  <advance width="338"/>
  <unicode hex="007D"/>
  <outline>
    <contour>
      <point x="339" y="296" type="line"/>
      <point x="228" y="296" type="line"/>
      <point x="228" y="676" type="line"/>
      <point x="-20" y="676" type="line"/>
      <point x="-20" y="594" type="line"/>
      <point x="153" y="594" type="line"/>
      <point x="153" y="-102" type="line"/>
      <point x="-20" y="-102" type="line"/>
      <point x="-20" y="-184" type="line"/>
      <point x="228" y="-184" type="line"/>
      <point x="228" y="215" type="line"/>
      <point x="339" y="215" type="line"/>
    </contour>
  </outline>
</glyph>
<glyph name="asciitilde" format="1">
  <advance width="512"/>
  <unicode hex="007E"/>
  <outline>
    <contour>
      <point x="116" y="318" type="line"/>
      <point x="216" y="318" type="line"/>
      <point x="216" y="210" type="line"/>
      <point x="470" y="210" type="line"/>
      <point x="470" y="394" type="line"/>
      <point x="392" y="394" type="line"/>
      <point x="392" y="291" type="line"/>
      <point x="297" y="291" type="line"/>
      <point x="297" y="394" type="line"/>
      <point x="41" y="394" type="line"/>
      <point x="41" y="210" type="line"/>
      <point x="116" y="210" type="line"/>
    </contour>
  </outline>
</glyph>
<glyph name="cent" format="1">
  <advance width="481"/>
  <unicode hex="00A2"/>
  <outline>
    <contour>
      <point x="210" y="376" type="line"/>
      <point x="162" y="376" type="line"/>
      <point x="162" y="72" type="line"/>
      <point x="210" y="72" type="line"/>
    </contour>
    <contour>
      <point x="399" y="287" type="line"/>
      <point x="324" y="287" type="line"/>
      <point x="324" y="376" type="line"/>
      <point x="282" y="376" type="line"/>
      <point x="282" y="72" type="line"/>
      <point x="391" y="72" type="line"/>
      <point x="391" y="0" type="line"/>
      <point x="282" y="0" type="line"/>
      <point x="282" y="-82" type="line"/>
      <point x="210" y="-82" type="line"/>
      <point x="210" y="0" type="line"/>
      <point x="82" y="0" type="line"/>
      <point x="82" y="451" type="line"/>
      <point x="210" y="451" type="line"/>
      <point x="210" y="563" type="line"/>
      <point x="282" y="563" type="line"/>
      <point x="282" y="451" type="line"/>
      <point x="399" y="451" type="line"/>
    </contour>
  </outline>
</glyph>
<glyph name="sterling" format="1">
  <advance width="481"/>
  <unicode hex="00A3"/>
  <outline>
    <contour>
      <point x="82" y="71" type="line"/>
      <point x="180" y="71" type="line"/>
      <point x="180" y="205" type="line"/>
      <point x="82" y="205" type="line"/>
      <point x="82" y="275" type="line"/>
      <point x="180" y="275" type="line"/>
      <point x="180" y="451" type="line"/>
      <point x="399" y="451" type="line"/>
      <point x="399" y="380" type="line"/>
      <point x="256" y="380" type="line"/>
      <point x="256" y="275" type="line"/>
      <point x="399" y="275" type="line"/>
      <point x="399" y="205" type="line"/>
      <point x="256" y="205" type="line"/>
      <point x="256" y="71" type="line"/>
      <point x="404" y="71" type="line"/>
      <point x="404" y="0" type="line"/>
      <point x="82" y="0" type="line"/>
    </contour>
  </outline>
</glyph>
<glyph name="section" format="1">
  <advance width="373"/>
  <unicode hex="00A7"/>
  <outline>
    <contour>
      <point x="239" y="258" type="line"/>
      <point x="186" y="271" type="line"/>
      <point x="134" y="247" type="line"/>
      <point x="134" y="182" type="line"/>
      <point x="179" y="171" type="line"/>
      <point x="239" y="194" type="line"/>
    </contour>
    <contour>
      <point x="290" y="179" type="line"/>
      <point x="221" y="157" type="line"/>
      <point x="290" y="140" type="line"/>
      <point x="290" y="-12" type="line"/>
      <point x="82" y="-13" type="line"/>
      <point x="82" y="61" type="line"/>
      <point x="132" y="61" type="line"/>
      <point x="132" y="36" type="line"/>
      <point x="239" y="36" type="line"/>
      <point x="239" y="92" type="line"/>
      <point x="82" y="129" type="line"/>
      <point x="82" y="262" type="line"/>
      <point x="140" y="285" type="line"/>
      <point x="82" y="298" type="line"/>
      <point x="82" y="454" type="line"/>
      <point x="292" y="454" type="line"/>
      <point x="292" y="345" type="line"/>
      <point x="242" y="345" type="line"/>
      <point x="242" y="404" type="line"/>
      <point x="134" y="404" type="line"/>
      <point x="134" y="345" type="line"/>
      <point x="290" y="309" type="line"/>
    </contour>
  </outline>
</glyph>
<glyph name="copyright" format="1">
  <advance width="665"/>
  <unicode hex="00A9"/>
  <outline>
    <contour>
      <point x="365" y="355" type="line"/>
      <point x="305" y="355" type="line"/>
      <point x="305" y="174" type="line"/>
      <point x="422" y="174" type="line"/>
      <point x="422" y="102" type="line"/>
      <point x="236" y="102" type="line"/>
      <point x="236" y="430" type="line"/>
      <point x="430" y="430" type="line"/>
      <point x="430" y="287" type="line"/>
      <point x="365" y="287" type="line"/>
    </contour>
    <contour>
      <point x="158" y="2" type="line"/>
      <point x="504" y="2" type="line"/>
      <point x="504" y="521" type="line"/>
      <point x="158" y="521" type="line"/>
    </contour>
    <contour>
      <point x="82" y="-76" type="line"/>
      <point x="82" y="594" type="line"/>
      <point x="584" y="594" type="line"/>
      <point x="584" y="-76" type="line"/>
    </contour>
  </outline>
</glyph>
<glyph name="guillemotleft" format="1">
  <advance width="593"/>
  <unicode hex="00AB"/>
  <outline>
    <contour>
      <point x="51" y="236" type="line"/>
      <point x="283" y="467" type="line"/>
      <point x="338" y="410" type="line"/>
      <point x="167" y="236" type="line"/>
      <point x="338" y="61" type="line"/>
      <point x="283" y="4" type="line"/>
    </contour>
    <contour>
      <point x="256" y="236" type="line"/>
      <point x="487" y="467" type="line"/>
      <point x="543" y="410" type="line"/>
      <point x="372" y="236" type="line"/>
      <point x="543" y="61" type="line"/>
      <point x="487" y="4" type="line"/>
    </contour>
  </outline>
</glyph>
<glyph name="registered" format="1">
  <advance width="665"/>
  <unicode hex="00AE"/>
  <outline>
    <contour>
      <point x="158" y="2" type="line"/>
      <point x="504" y="2" type="line"/>
      <point x="504" y="521" type="line"/>
      <point x="158" y="521" type="line"/>
    </contour>
    <contour>
      <point x="82" y="-76" type="line"/>
      <point x="82" y="594" type="line"/>
      <point x="584" y="594" type="line"/>
      <point x="584" y="-76" type="line"/>
    </contour>
    <contour>
      <point x="471" y="102" type="line"/>
      <point x="391" y="102" type="line"/>
      <point x="324" y="236" type="line"/>
      <point x="301" y="236" type="line"/>
      <point x="301" y="102" type="line"/>
      <point x="236" y="102" type="line"/>
      <point x="236" y="430" type="line"/>
      <point x="420" y="430" type="line"/>
      <point x="420" y="236" type="line"/>
      <point x="383" y="236" type="line"/>
    </contour>
    <contour>
      <point x="360" y="287" type="line"/>
      <point x="360" y="369" type="line"/>
      <point x="301" y="369" type="line"/>
      <point x="301" y="287" type="line"/>
    </contour>
  </outline>
</glyph>
<glyph name="plusminus" format="1">
  <advance width="491"/>
  <unicode hex="00B1"/>
  <outline>
    <contour>
      <point x="466" y="-123" type="line"/>
      <point x="466" y="-51" type="line"/>
      <point x="26" y="-51" type="line"/>
      <point x="26" y="-123" type="line"/>
    </contour>
    <contour>
      <point x="200" y="0" type="line"/>
      <point x="200" y="205" type="line"/>
      <point x="26" y="205" type="line"/>
      <point x="26" y="276" type="line"/>
      <point x="200" y="276" type="line"/>
      <point x="200" y="451" type="line"/>
      <point x="282" y="451" type="line"/>
      <point x="282" y="276" type="line"/>
      <point x="466" y="276" type="line"/>
      <point x="466" y="205" type="line"/>
      <point x="282" y="205" type="line"/>
      <point x="282" y="0" type="line"/>
    </contour>
  </outline>
</glyph>
<glyph name="acute" format="1">
  <advance width="481"/>
  <unicode hex="00B4"/>
  <outline>
    <contour>
      <point x="287" y="676" type="line"/>
      <point x="82" y="543" type="line"/>
      <point x="137" y="481" type="line"/>
      <point x="342" y="614" type="line"/>
    </contour>
  </outline>
</glyph>
<glyph name="paragraph" format="1">
  <advance width="409"/>
  <unicode hex="00B6"/>
  <outline>
    <contour>
      <point x="82" y="256" type="line"/>
      <point x="251" y="256" type="line"/>
      <point x="251" y="0" type="line"/>
      <point x="328" y="0" type="line"/>
      <point x="328" y="573" type="line"/>
      <point x="82" y="573" type="line"/>
    </contour>
    <contour>
      <point x="162" y="328" type="line"/>
      <point x="162" y="502" type="line"/>
      <point x="251" y="502" type="line"/>
      <point x="251" y="328" type="line"/>
    </contour>
  </outline>
</glyph>
<glyph name="guillemotright" format="1">
  <advance width="593"/>
  <unicode hex="00BB"/>
  <outline>
    <contour>
      <point x="543" y="236" type="line"/>
      <point x="311" y="467" type="line"/>
      <point x="256" y="410" type="line"/>
      <point x="427" y="236" type="line"/>
      <point x="256" y="61" type="line"/>
      <point x="311" y="4" type="line"/>
    </contour>
    <contour>
      <point x="338" y="236" type="line"/>
      <point x="106" y="467" type="line"/>
      <point x="51" y="410" type="line"/>
      <point x="222" y="236" type="line"/>
      <point x="51" y="61" type="line"/>
      <point x="106" y="4" type="line"/>
    </contour>
  </outline>
</glyph>
<glyph name="questiondown" format="1">
  <advance width="481"/>
  <unicode hex="00BF"/>
  <outline>
    <contour>
      <point x="396" y="0" type="line"/>
      <point x="81" y="0" type="line"/>
      <point x="81" y="348" type="line"/>
      <point x="216" y="348" type="line"/>
      <point x="216" y="440" type="line"/>
      <point x="294" y="440" type="line"/>
      <point x="294" y="278" type="line"/>
      <point x="155" y="278" type="line"/>
      <point x="155" y="74" type="line"/>
      <point x="397" y="74" type="line"/>
    </contour>
    <contour>
      <point x="294" y="512" type="line"/>
      <point x="294" y="635" type="line"/>
      <point x="218" y="635" type="line"/>
      <point x="218" y="512" type="line"/>
    </contour>
  </outline>
</glyph>
<glyph name="Aacute" format="1">
  <advance width="481"/>
  <unicode hex="00C1"/>
  <outline>
    <contour>
      <point x="158" y="502" type="line"/>
      <point x="158" y="328" type="line"/>
      <point x="319" y="328" type="line"/>
      <point x="319" y="502" type="line"/>
    </contour>
    <contour>
      <point x="399" y="0" type="line"/>
      <point x="319" y="0" type="line"/>
      <point x="319" y="256" type="line"/>
      <point x="158" y="256" type="line"/>
      <point x="158" y="0" type="line"/>
      <point x="82" y="0" type="line"/>
      <point x="82" y="573" type="line"/>
      <point x="399" y="573" type="line"/>
    </contour>
    <contour>
      <point x="287" y="809" type="line"/>
      <point x="82" y="676" type="line"/>
      <point x="137" y="614" type="line"/>
      <point x="342" y="748" type="line"/>
    </contour>
  </outline>
</glyph>
<glyph name="Adieresis" format="1">
  <advance width="481"/>
  <unicode hex="00C4"/>
  <outline>
    <contour>
      <point x="158" y="502" type="line"/>
      <point x="158" y="328" type="line"/>
      <point x="319" y="328" type="line"/>
      <point x="319" y="502" type="line"/>
    </contour>
    <contour>
      <point x="399" y="0" type="line"/>
      <point x="319" y="0" type="line"/>
      <point x="319" y="256" type="line"/>
      <point x="158" y="256" type="line"/>
      <point x="158" y="0" type="line"/>
      <point x="82" y="0" type="line"/>
      <point x="82" y="573" type="line"/>
      <point x="399" y="573" type="line"/>
    </contour>
    <contour>
      <point x="82" y="758" type="line"/>
      <point x="82" y="625" type="line"/>
      <point x="158" y="625" type="line"/>
      <point x="158" y="758" type="line"/>
    </contour>
    <contour>
      <point x="266" y="758" type="line"/>
      <point x="266" y="625" type="line"/>
      <point x="342" y="625" type="line"/>
      <point x="342" y="758" type="line"/>
    </contour>
  </outline>
</glyph>
<glyph name="Aring" format="1">
  <advance width="481"/>
  <unicode hex="00C5"/>
  <outline>
    <contour>
      <point x="158" y="502" type="line"/>
      <point x="158" y="328" type="line"/>
      <point x="319" y="328" type="line"/>
      <point x="319" y="502" type="line"/>
    </contour>
    <contour>
      <point x="399" y="0" type="line"/>
      <point x="319" y="0" type="line"/>
      <point x="319" y="256" type="line"/>
      <point x="158" y="256" type="line"/>
      <point x="158" y="0" type="line"/>
      <point x="82" y="0" type="line"/>
      <point x="82" y="573" type="line"/>
      <point x="399" y="573" type="line"/>
    </contour>
    <contour>
      <point x="84" y="612" type="line"/>
      <point x="84" y="821" type="line"/>
      <point x="274" y="821" type="line"/>
      <point x="274" y="612" type="line"/>
    </contour>
    <contour>
      <point x="219" y="777" type="line"/>
      <point x="142" y="776" type="line"/>
      <point x="142" y="655" type="line"/>
      <point x="219" y="655" type="line"/>
    </contour>
  </outline>
</glyph>
<glyph name="AE" format="1">
  <advance width="727"/>
  <unicode hex="00C6"/>
  <outline>
    <contour>
      <point x="319" y="0" type="line"/>
      <point x="319" y="255" type="line"/>
      <point x="158" y="255" type="line"/>
      <point x="158" y="0" type="line"/>
      <point x="82" y="0" type="line"/>
      <point x="82" y="573" type="line"/>
      <point x="175.0" y="573.0" name="inserted"/>
      <point x="456.5" y="573.5"/>
      <point x="645" y="574" type="qcurve"/>
      <point x="645" y="502" type="line"/>
      <point x="403" y="502" type="line"/>
      <point x="403" y="327" type="line"/>
      <point x="645" y="327" type="line"/>
      <point x="645" y="255" type="line"/>
      <point x="403" y="255" type="line"/>
      <point x="403" y="78" type="line"/>
      <point x="645" y="78" type="line"/>
      <point x="645" y="0" type="line"/>
    </contour>
    <contour>
      <point x="319" y="327" type="line"/>
      <point x="319" y="502" type="line"/>
      <point x="158" y="502" type="line"/>
      <point x="158" y="327" type="line"/>
    </contour>
  </outline>
</glyph>
<glyph name="Ccedilla" format="1">
  <advance width="481"/>
  <unicode hex="00C7"/>
  <outline>
    <contour>
      <point x="325" y="0" type="line"/>
      <point x="281" y="-174" type="line"/>
      <point x="195" y="-174" type="line"/>
      <point x="247" y="0" type="line"/>
      <point x="82" y="0" type="line"/>
      <point x="82" y="573" type="line"/>
      <point x="399" y="573" type="line"/>
      <point x="399" y="410" type="line"/>
      <point x="324" y="410" type="line"/>
      <point x="324" y="499" type="line"/>
      <point x="162" y="499" type="line"/>
      <point x="162" y="72" type="line"/>
      <point x="391" y="72" type="line"/>
      <point x="391" y="0" type="line"/>
    </contour>
  </outline>
</glyph>
<glyph name="Eacute" format="1">
  <advance width="481"/>
  <unicode hex="00C9"/>
  <outline>
    <contour>
      <point x="399" y="78" type="line"/>
      <point x="399" y="0" type="line"/>
      <point x="82" y="0" type="line"/>
      <point x="82" y="573" type="line"/>
      <point x="399" y="574" type="line"/>
      <point x="399" y="502" type="line"/>
      <point x="158" y="502" type="line"/>
      <point x="158" y="378" type="line"/>
      <point x="399" y="378" type="line"/>
      <point x="399" y="306" type="line"/>
      <point x="158" y="306" type="line"/>
      <point x="158" y="78" type="line"/>
    </contour>
    <contour>
      <point x="287" y="799" type="line"/>
      <point x="82" y="666" type="line"/>
      <point x="137" y="604" type="line"/>
      <point x="342" y="737" type="line"/>
    </contour>
  </outline>
</glyph>
<glyph name="Edieresis" format="1">
  <advance width="481"/>
  <unicode hex="00CB"/>
  <outline>
    <contour>
      <point x="399" y="78" type="line"/>
      <point x="399" y="0" type="line"/>
      <point x="82" y="0" type="line"/>
      <point x="82" y="573" type="line"/>
      <point x="399" y="574" type="line"/>
      <point x="399" y="502" type="line"/>
      <point x="158" y="502" type="line"/>
      <point x="158" y="378" type="line"/>
      <point x="399" y="378" type="line"/>
      <point x="399" y="306" type="line"/>
      <point x="158" y="306" type="line"/>
      <point x="158" y="78" type="line"/>
    </contour>
    <contour>
      <point x="82" y="748" type="line"/>
      <point x="82" y="614" type="line"/>
      <point x="158" y="614" type="line"/>
      <point x="158" y="748" type="line"/>
    </contour>
    <contour>
      <point x="266" y="748" type="line"/>
      <point x="266" y="614" type="line"/>
      <point x="342" y="614" type="line"/>
      <point x="342" y="748" type="line"/>
    </contour>
  </outline>
</glyph>
<glyph name="Iacute" format="1">
  <advance width="324"/>
  <unicode hex="00CD"/>
  <outline>
    <contour>
      <point x="124" y="500" type="line"/>
      <point x="51" y="500" type="line"/>
      <point x="51" y="573" type="line"/>
      <point x="268" y="573" type="line"/>
      <point x="268" y="500" type="line"/>
      <point x="200" y="500" type="line"/>
      <point x="200" y="74" type="line"/>
      <point x="273" y="74" type="line"/>
      <point x="273" y="0" type="line"/>
      <point x="57" y="0" type="line"/>
      <point x="57" y="74" type="line"/>
      <point x="124" y="74" type="line"/>
    </contour>
    <contour>
      <point x="225" y="799" type="line"/>
      <point x="20" y="666" type="line"/>
      <point x="76" y="604" type="line"/>
      <point x="281" y="737" type="line"/>
    </contour>
  </outline>
</glyph>
<glyph name="Icircumflex" format="1">
  <advance width="324"/>
  <unicode hex="00CE"/>
  <outline>
    <contour>
      <point x="124" y="500" type="line"/>
      <point x="51" y="500" type="line"/>
      <point x="51" y="573" type="line"/>
      <point x="268" y="573" type="line"/>
      <point x="268" y="500" type="line"/>
      <point x="200" y="500" type="line"/>
      <point x="200" y="74" type="line"/>
      <point x="273" y="74" type="line"/>
      <point x="273" y="0" type="line"/>
      <point x="57" y="0" type="line"/>
      <point x="57" y="74" type="line"/>
      <point x="124" y="74" type="line"/>
    </contour>
    <contour>
      <point x="154" y="803" type="line"/>
      <point x="293" y="664" type="line"/>
      <point x="238" y="610" type="line"/>
      <point x="154" y="702" type="line"/>
      <point x="70" y="610" type="line"/>
      <point x="14" y="664" type="line"/>
    </contour>
  </outline>
</glyph>
<glyph name="Idieresis" format="1">
  <advance width="324"/>
  <unicode hex="00CF"/>
  <outline>
    <contour>
      <point x="124" y="500" type="line"/>
      <point x="51" y="500" type="line"/>
      <point x="51" y="573" type="line"/>
      <point x="268" y="573" type="line"/>
      <point x="268" y="500" type="line"/>
      <point x="200" y="500" type="line"/>
      <point x="200" y="74" type="line"/>
      <point x="273" y="74" type="line"/>
      <point x="273" y="0" type="line"/>
      <point x="57" y="0" type="line"/>
      <point x="57" y="74" type="line"/>
      <point x="124" y="74" type="line"/>
    </contour>
    <contour>
      <point x="41" y="758" type="line"/>
      <point x="41" y="625" type="line"/>
      <point x="117" y="625" type="line"/>
      <point x="117" y="758" type="line"/>
    </contour>
    <contour>
      <point x="225" y="758" type="line"/>
      <point x="225" y="625" type="line"/>
      <point x="301" y="625" type="line"/>
      <point x="301" y="758" type="line"/>
    </contour>
  </outline>
</glyph>
<glyph name="Ograve" format="1">
  <advance width="481"/>
  <unicode hex="00D2"/>
  <outline>
    <contour>
      <point x="158" y="78" type="line"/>
      <point x="319" y="78" type="line"/>
      <point x="319" y="501" type="line"/>
      <point x="158" y="501" type="line"/>
    </contour>
    <contour>
      <point x="82" y="0" type="line"/>
      <point x="82" y="573" type="line"/>
      <point x="399" y="573" type="line"/>
      <point x="399" y="0" type="line"/>
    </contour>
    <contour>
      <point x="137" y="788" type="line"/>
      <point x="342" y="655" type="line"/>
      <point x="287" y="594" type="line"/>
      <point x="82" y="727" type="line"/>
    </contour>
  </outline>
</glyph>
<glyph name="Oacute" format="1">
  <advance width="481"/>
  <unicode hex="00D3"/>
  <outline>
    <contour>
      <point x="158" y="78" type="line"/>
      <point x="319" y="78" type="line"/>
      <point x="319" y="501" type="line"/>
      <point x="158" y="501" type="line"/>
    </contour>
    <contour>
      <point x="82" y="0" type="line"/>
      <point x="82" y="573" type="line"/>
      <point x="399" y="573" type="line"/>
      <point x="399" y="0" type="line"/>
    </contour>
    <contour>
      <point x="287" y="799" type="line"/>
      <point x="82" y="666" type="line"/>
      <point x="137" y="604" type="line"/>
      <point x="342" y="737" type="line"/>
    </contour>
  </outline>
</glyph>
<glyph name="Ocircumflex" format="1">
  <advance width="481"/>
  <unicode hex="00D4"/>
  <outline>
    <contour>
      <point x="158" y="78" type="line"/>
      <point x="319" y="78" type="line"/>
      <point x="319" y="501" type="line"/>
      <point x="158" y="501" type="line"/>
    </contour>
    <contour>
      <point x="82" y="0" type="line"/>
      <point x="82" y="573" type="line"/>
      <point x="399" y="573" type="line"/>
      <point x="399" y="0" type="line"/>
    </contour>
    <contour>
      <point x="225" y="803" type="line"/>
      <point x="365" y="664" type="line"/>
      <point x="309" y="610" type="line"/>
      <point x="225" y="702" type="line"/>
      <point x="141" y="610" type="line"/>
      <point x="86" y="664" type="line"/>
    </contour>
  </outline>
</glyph>
<glyph name="Otilde" format="1">
  <advance width="481"/>
  <unicode hex="00D5"/>
  <outline>
    <contour>
      <point x="133" y="725" type="line"/>
      <point x="214" y="725" type="line"/>
      <point x="214" y="638" type="line"/>
      <point x="417" y="638" type="line"/>
      <point x="417" y="785" type="line"/>
      <point x="354" y="785" type="line"/>
      <point x="354" y="702" type="line"/>
      <point x="279" y="702" type="line"/>
      <point x="279" y="785" type="line"/>
      <point x="74" y="785" type="line"/>
      <point x="74" y="638" type="line"/>
      <point x="133" y="638" type="line"/>
    </contour>
    <contour>
      <point x="158" y="78" type="line"/>
      <point x="319" y="78" type="line"/>
      <point x="319" y="501" type="line"/>
      <point x="158" y="501" type="line"/>
    </contour>
    <contour>
      <point x="82" y="0" type="line"/>
      <point x="82" y="573" type="line"/>
      <point x="399" y="573" type="line"/>
      <point x="399" y="0" type="line"/>
    </contour>
  </outline>
</glyph>
<glyph name="Odieresis" format="1">
  <advance width="481"/>
  <unicode hex="00D6"/>
  <outline>
    <contour>
      <point x="158" y="78" type="line"/>
      <point x="319" y="78" type="line"/>
      <point x="319" y="501" type="line"/>
      <point x="158" y="501" type="line"/>
    </contour>
    <contour>
      <point x="82" y="0" type="line"/>
      <point x="82" y="573" type="line"/>
      <point x="399" y="573" type="line"/>
      <point x="399" y="0" type="line"/>
    </contour>
  </outline>
</glyph>
<glyph name="multiply" format="1">
  <advance width="513"/>
  <unicode hex="00D7"/>
  <outline>
    <contour>
      <point x="383" y="44" type="line"/>
      <point x="256" y="171" type="line"/>
      <point x="130" y="44" type="line"/>
      <point x="72" y="102" type="line"/>
      <point x="199" y="228" type="line"/>
      <point x="72" y="355" type="line"/>
      <point x="130" y="414" type="line"/>
      <point x="256" y="287" type="line"/>
      <point x="383" y="414" type="line"/>
      <point x="441" y="355" type="line"/>
      <point x="314" y="228" type="line"/>
      <point x="441" y="102" type="line"/>
    </contour>
  </outline>
</glyph>
<glyph name="Udieresis" format="1">
  <advance width="481"/>
  <unicode hex="00DC"/>
  <outline>
    <contour>
      <point x="399" y="573" type="line"/>
      <point x="399" y="0" type="line"/>
      <point x="82" y="0" type="line"/>
      <point x="82" y="573" type="line"/>
      <point x="158" y="573" type="line"/>
      <point x="158" y="72" type="line"/>
      <point x="319" y="72" type="line"/>
      <point x="319" y="573" type="line"/>
    </contour>
  </outline>
</glyph>
<glyph name="Yacute" format="1">
  <advance width="481"/>
  <unicode hex="00DD"/>
  <outline>
    <contour>
      <point x="399" y="573" type="line"/>
      <point x="399" y="0" type="line"/>
      <point x="82" y="0" type="line"/>
      <point x="82" y="72" type="line"/>
      <point x="319" y="72" type="line"/>
      <point x="319" y="184" type="line"/>
      <point x="84" y="184" type="line"/>
      <point x="84" y="573" type="line"/>
      <point x="158" y="573" type="line"/>
      <point x="158" y="258" type="line"/>
      <point x="319" y="258" type="line"/>
      <point x="319" y="573" type="line"/>
    </contour>
    <contour>
      <point x="287" y="799" type="line"/>
      <point x="82" y="666" type="line"/>
      <point x="137" y="604" type="line"/>
      <point x="342" y="737" type="line"/>
    </contour>
  </outline>
</glyph>
<glyph name="acircumflex" format="1">
  <advance width="481"/>
  <unicode hex="00E2"/>
  <outline>
    <contour>
      <point x="319" y="266" type="line"/>
      <point x="319" y="379" type="line"/>
      <point x="82" y="379" type="line"/>
      <point x="82" y="451" type="line"/>
      <point x="399" y="451" type="line"/>
      <point x="399" y="0" type="line"/>
      <point x="84" y="0" type="line"/>
      <point x="84" y="266" type="line"/>
    </contour>
    <contour>
      <point x="319" y="193" type="line"/>
      <point x="158" y="193" type="line"/>
      <point x="158" y="74" type="line"/>
      <point x="319" y="74" type="line"/>
    </contour>
    <contour>
      <point x="225" y="680" type="line"/>
      <point x="365" y="541" type="line"/>
      <point x="309" y="487" type="line"/>
      <point x="225" y="580" type="line"/>
      <point x="141" y="487" type="line"/>
      <point x="86" y="541" type="line"/>
    </contour>
  </outline>
</glyph>
<glyph name="ccedilla" format="1">
  <advance width="481"/>
  <unicode hex="00E7"/>
  <outline>
    <contour>
      <point x="195" y="-174" type="line"/>
      <point x="247" y="0" type="line"/>
      <point x="82" y="0" type="line"/>
      <point x="82" y="451" type="line"/>
      <point x="399" y="451" type="line"/>
      <point x="399" y="287" type="line"/>
      <point x="324" y="287" type="line"/>
      <point x="324" y="376" type="line"/>
      <point x="162" y="376" type="line"/>
      <point x="162" y="72" type="line"/>
      <point x="391" y="72" type="line"/>
      <point x="391" y="0" type="line"/>
      <point x="325" y="0" type="line"/>
      <point x="281" y="-174" type="line"/>
    </contour>
  </outline>
</glyph>
<glyph name="ecircumflex" format="1">
  <advance width="481"/>
  <unicode hex="00EA"/>
  <outline>
    <contour>
      <point x="162" y="184" type="line"/>
      <point x="162" y="72" type="line"/>
      <point x="399" y="72" type="line"/>
      <point x="399" y="0" type="line"/>
      <point x="82" y="0" type="line"/>
      <point x="82" y="451" type="line"/>
      <point x="397" y="451" type="line"/>
      <point x="397" y="184" type="line"/>
    </contour>
    <contour>
      <point x="162" y="258" type="line"/>
      <point x="324" y="258" type="line"/>
      <point x="324" y="377" type="line"/>
      <point x="162" y="377" type="line"/>
    </contour>
    <contour>
      <point x="225" y="680" type="line"/>
      <point x="365" y="541" type="line"/>
      <point x="309" y="487" type="line"/>
      <point x="225" y="580" type="line"/>
      <point x="141" y="487" type="line"/>
      <point x="86" y="541" type="line"/>
    </contour>
  </outline>
</glyph>
<glyph name="icircumflex" format="1">
  <advance width="239"/>
  <unicode hex="00EE"/>
  <outline>
    <contour>
      <point x="82" y="450" type="line"/>
      <point x="82" y="0" type="line"/>
      <point x="158" y="0" type="line"/>
      <point x="158" y="451" type="line"/>
    </contour>
    <contour>
      <point x="123" y="680" type="line"/>
      <point x="262" y="541" type="line"/>
      <point x="207" y="487" type="line"/>
      <point x="123" y="580" type="line"/>
      <point x="39" y="487" type="line"/>
      <point x="-16" y="541" type="line"/>
    </contour>
  </outline>
</glyph>
<glyph name="ntilde" format="1">
  <advance width="481"/>
  <unicode hex="00F1"/>
  <outline>
    <contour>
      <point x="133" y="623" type="line"/>
      <point x="214" y="623" type="line"/>
      <point x="214" y="536" type="line"/>
      <point x="417" y="536" type="line"/>
      <point x="417" y="683" type="line"/>
      <point x="354" y="683" type="line"/>
      <point x="354" y="600" type="line"/>
      <point x="279" y="600" type="line"/>
      <point x="279" y="683" type="line"/>
      <point x="74" y="683" type="line"/>
      <point x="74" y="536" type="line"/>
      <point x="133" y="536" type="line"/>
    </contour>
    <contour>
      <point x="399" y="0" type="line"/>
      <point x="399" y="451" type="line"/>
      <point x="82" y="451" type="line"/>
      <point x="82" y="0" type="line"/>
      <point x="158" y="0" type="line"/>
      <point x="158" y="379" type="line"/>
      <point x="319" y="379" type="line"/>
      <point x="319" y="0" type="line"/>
    </contour>
  </outline>
</glyph>
<glyph name="oacute" format="1">
  <advance width="481"/>
  <unicode hex="00F3"/>
  <outline>
    <contour>
      <point x="82" y="0" type="line"/>
      <point x="82" y="451" type="line"/>
      <point x="399" y="451" type="line"/>
      <point x="399" y="0" type="line"/>
    </contour>
    <contour>
      <point x="324" y="377" type="line"/>
      <point x="162" y="376" type="line"/>
      <point x="162" y="72" type="line"/>
      <point x="324" y="72" type="line"/>
    </contour>
    <contour>
      <point x="287" y="676" type="line"/>
      <point x="82" y="543" type="line"/>
      <point x="137" y="481" type="line"/>
      <point x="342" y="614" type="line"/>
    </contour>
  </outline>
</glyph>
<glyph name="ocircumflex" format="1">
  <advance width="481"/>
  <unicode hex="00F4"/>
  <outline>
    <contour>
      <point x="82" y="0" type="line"/>
      <point x="82" y="451" type="line"/>
      <point x="399" y="451" type="line"/>
      <point x="399" y="0" type="line"/>
    </contour>
    <contour>
      <point x="324" y="377" type="line"/>
      <point x="162" y="376" type="line"/>
      <point x="162" y="72" type="line"/>
      <point x="324" y="72" type="line"/>
    </contour>
    <contour>
      <point x="225" y="680" type="line"/>
      <point x="365" y="541" type="line"/>
      <point x="309" y="487" type="line"/>
      <point x="225" y="580" type="line"/>
      <point x="141" y="487" type="line"/>
      <point x="86" y="541" type="line"/>
    </contour>
  </outline>
</glyph>
<glyph name="otilde" format="1">
  <advance width="481"/>
  <unicode hex="00F5"/>
  <outline>
    <contour>
      <point x="133" y="623" type="line"/>
      <point x="214" y="623" type="line"/>
      <point x="214" y="536" type="line"/>
      <point x="417" y="536" type="line"/>
      <point x="417" y="683" type="line"/>
      <point x="354" y="683" type="line"/>
      <point x="354" y="600" type="line"/>
      <point x="279" y="600" type="line"/>
      <point x="279" y="683" type="line"/>
      <point x="74" y="683" type="line"/>
      <point x="74" y="536" type="line"/>
      <point x="133" y="536" type="line"/>
    </contour>
    <contour>
      <point x="82" y="0" type="line"/>
      <point x="82" y="451" type="line"/>
      <point x="399" y="451" type="line"/>
      <point x="399" y="0" type="line"/>
    </contour>
    <contour>
      <point x="324" y="377" type="line"/>
      <point x="162" y="376" type="line"/>
      <point x="162" y="72" type="line"/>
      <point x="324" y="72" type="line"/>
    </contour>
  </outline>
</glyph>
<glyph name="oslash" format="1">
  <advance width="481"/>
  <unicode hex="00F8"/>
  <outline>
    <contour>
      <point x="82" y="0" type="line"/>
      <point x="82" y="451" type="line"/>
      <point x="263" y="451" type="line"/>
      <point x="297" y="573" type="line"/>
      <point x="373" y="573" type="line"/>
      <point x="339" y="451" type="line"/>
      <point x="399" y="451" type="line"/>
      <point x="399" y="0" type="line"/>
      <point x="216" y="0" type="line"/>
      <point x="188" y="-102" type="line"/>
      <point x="113" y="-102" type="line"/>
      <point x="140" y="0" type="line"/>
    </contour>
    <contour>
      <point x="243" y="376" type="line"/>
      <point x="162" y="376" type="line"/>
      <point x="162" y="78" type="line"/>
    </contour>
    <contour>
      <point x="324" y="376" type="line"/>
      <point x="318" y="376" type="line"/>
      <point x="236" y="72" type="line"/>
      <point x="324" y="72" type="line"/>
    </contour>
  </outline>
</glyph>
<glyph name="yacute" format="1">
  <advance width="481"/>
  <unicode hex="00FD"/>
  <outline>
    <contour>
      <point x="399" y="451" type="line"/>
      <point x="399" y="-184" type="line"/>
      <point x="82" y="-184" type="line"/>
      <point x="82" y="-113" type="line"/>
      <point x="319" y="-113" type="line"/>
      <point x="319" y="0" type="line"/>
      <point x="84" y="0" type="line"/>
      <point x="84" y="451" type="line"/>
      <point x="158" y="451" type="line"/>
      <point x="158" y="74" type="line"/>
      <point x="319" y="74" type="line"/>
      <point x="319" y="451" type="line"/>
    </contour>
    <contour>
      <point x="287" y="696" type="line"/>
      <point x="82" y="563" type="line"/>
      <point x="137" y="502" type="line"/>
      <point x="342" y="635" type="line"/>
    </contour>
  </outline>
</glyph>
<glyph name="oe" format="1">
  <advance width="706"/>
  <unicode hex="0153"/>
  <outline>
    <contour>
      <point x="82" y="0" type="line"/>
      <point x="82" y="451" type="line"/>
      <point x="623" y="451" type="line"/>
      <point x="623" y="184" type="line"/>
      <point x="387" y="184" type="line"/>
      <point x="387" y="72" type="line"/>
      <point x="625" y="72" type="line"/>
      <point x="625" y="0" type="line"/>
    </contour>
    <contour>
      <point x="549" y="258" type="line"/>
      <point x="549" y="377" type="line"/>
      <point x="387" y="377" type="line"/>
      <point x="387" y="258" type="line"/>
    </contour>
    <contour>
      <point x="324" y="72" type="line"/>
      <point x="324" y="377" type="line"/>
      <point x="162" y="376" type="line"/>
      <point x="162" y="72" type="line"/>
    </contour>
  </outline>
</glyph>
<glyph name="Ydieresis" format="1">
  <advance width="481"/>
  <unicode hex="0178"/>
  <outline>
    <contour>
      <point x="399" y="573" type="line"/>
      <point x="399" y="0" type="line"/>
      <point x="82" y="0" type="line"/>
      <point x="82" y="72" type="line"/>
      <point x="319" y="72" type="line"/>
      <point x="319" y="184" type="line"/>
      <point x="84" y="184" type="line"/>
      <point x="84" y="573" type="line"/>
      <point x="158" y="573" type="line"/>
      <point x="158" y="258" type="line"/>
      <point x="319" y="258" type="line"/>
      <point x="319" y="573" type="line"/>
    </contour>
    <contour>
      <point x="82" y="748" type="line"/>
      <point x="82" y="614" type="line"/>
      <point x="158" y="614" type="line"/>
      <point x="158" y="748" type="line"/>
    </contour>
    <contour>
      <point x="266" y="748" type="line"/>
      <point x="266" y="614" type="line"/>
      <point x="342" y="614" type="line"/>
      <point x="342" y="748" type="line"/>
    </contour>
  </outline>
</glyph>
<glyph name="zcaron" format="1">
  <advance width="481"/>
  <unicode hex="017E"/>
  <outline>
    <contour>
      <point x="182" y="72" type="line"/>
      <point x="391" y="72" type="line"/>
      <point x="391" y="0" type="line"/>
      <point x="82" y="0" type="line"/>
      <point x="82" y="72" type="line"/>
      <point x="319" y="376" type="line"/>
      <point x="82" y="376" type="line"/>
      <point x="82" y="451" type="line"/>
      <point x="399" y="451" type="line"/>
      <point x="399" y="373" type="line"/>
    </contour>
    <contour>
      <point x="225" y="487" type="line"/>
      <point x="86" y="627" type="line"/>
      <point x="141" y="680" type="line"/>
      <point x="225" y="588" type="line"/>
      <point x="309" y="680" type="line"/>
      <point x="365" y="627" type="line"/>
    </contour>
  </outline>
</glyph>
<glyph name="circumflex" format="1">
  <advance width="481"/>
  <unicode hex="02C6"/>
  <outline>
    <contour>
      <point x="225" y="680" type="line"/>
      <point x="365" y="541" type="line"/>
      <point x="309" y="487" type="line"/>
      <point x="225" y="580" type="line"/>
      <point x="141" y="487" type="line"/>
      <point x="86" y="541" type="line"/>
    </contour>
  </outline>
</glyph>
<glyph name="breve" format="1">
  <advance width="481"/>
  <unicode hex="02D8"/>
  <outline>
    <contour>
      <point x="225" y="487" type="line"/>
      <point x="86" y="627" type="line"/>
      <point x="141" y="680" type="line"/>
      <point x="225" y="588" type="line"/>
      <point x="309" y="680" type="line"/>
      <point x="365" y="627" type="line"/>
    </contour>
  </outline>
</glyph>
<glyph name="ring" format="1">
  <advance width="481"/>
  <unicode hex="02DA"/>
  <outline>
    <contour>
      <point x="84" y="520" type="line"/>
      <point x="84" y="729" type="line"/>
      <point x="274" y="729" type="line"/>
      <point x="274" y="520" type="line"/>
    </contour>
    <contour>
      <point x="219" y="685" type="line"/>
      <point x="142" y="684" type="line"/>
      <point x="142" y="563" type="line"/>
      <point x="219" y="563" type="line"/>
    </contour>
  </outline>
</glyph>
<glyph name="quoteleft" format="1">
  <advance width="137"/>
  <unicode hex="2018"/>
  <outline>
    <contour>
      <point x="20" y="430" type="line"/>
      <point x="82" y="635" type="line"/>
      <point x="158" y="635" type="line"/>
      <point x="106" y="430" type="line"/>
    </contour>
  </outline>
</glyph>
<glyph name="quoteright" format="1">
  <advance width="126"/>
  <unicode hex="2019"/>
  <outline>
    <contour>
      <point x="-20" y="430" type="line"/>
      <point x="20" y="635" type="line"/>
      <point x="106" y="635" type="line"/>
      <point x="55" y="430" type="line"/>
    </contour>
  </outline>
</glyph>
<glyph name="quotesinglbase" format="1">
  <advance width="126"/>
  <unicode hex="201A"/>
  <outline>
    <contour>
      <point x="-20" y="-82" type="line"/>
      <point x="20" y="123" type="line"/>
      <point x="106" y="123" type="line"/>
      <point x="55" y="-82" type="line"/>
    </contour>
  </outline>
</glyph>
<glyph name="quotedblright" format="1">
  <advance width="249"/>
  <unicode hex="201D"/>
  <outline>
    <contour>
      <point x="102" y="430" type="line"/>
      <point x="143" y="635" type="line"/>
      <point x="229" y="635" type="line"/>
      <point x="178" y="430" type="line"/>
    </contour>
    <contour>
      <point x="-20" y="430" type="line"/>
      <point x="20" y="635" type="line"/>
      <point x="106" y="635" type="line"/>
      <point x="55" y="430" type="line"/>
    </contour>
  </outline>
</glyph>
<glyph name="quotedblbase" format="1">
  <advance width="249"/>
  <unicode hex="201E"/>
  <outline>
    <contour>
      <point x="102" y="-82" type="line"/>
      <point x="143" y="123" type="line"/>
      <point x="229" y="123" type="line"/>
      <point x="178" y="-82" type="line"/>
    </contour>
    <contour>
      <point x="-20" y="-82" type="line"/>
      <point x="20" y="123" type="line"/>
      <point x="106" y="123" type="line"/>
      <point x="55" y="-82" type="line"/>
    </contour>
  </outline>
</glyph>
<glyph name="bullet" format="1">
  <advance width="409"/>
  <unicode hex="2022"/>
  <outline>
    <contour>
      <point x="102" y="451" type="line"/>
      <point x="307" y="451" type="line"/>
      <point x="307" y="205" type="line"/>
      <point x="102" y="205" type="line"/>
    </contour>
  </outline>
</glyph>
<glyph name="guilsinglright" format="1">
  <advance width="389"/>
  <unicode hex="203A"/>
  <outline>
    <contour>
      <point x="338" y="236" type="line"/>
      <point x="106" y="467" type="line"/>
      <point x="51" y="410" type="line"/>
      <point x="222" y="236" type="line"/>
      <point x="51" y="61" type="line"/>
      <point x="106" y="4" type="line"/>
    </contour>
  </outline>
</glyph>
<glyph name="fraction" format="1">
  <advance width="481"/>
  <unicode hex="2044"/>
  <outline>
    <contour>
      <point x="399" y="444" type="line"/>
      <point x="337" y="480" type="line"/>
      <point x="82" y="37" type="line"/>
      <point x="144" y="1" type="line"/>
    </contour>
  </outline>
</glyph>
<glyph name="minus" format="1">
  <advance width="409"/>
  <unicode hex="2212"/>
  <outline>
    <contour>
      <point x="394" y="205" type="line"/>
      <point x="394" y="276" type="line"/>
      <point x="15" y="276" type="line"/>
      <point x="15" y="205" type="line"/>
    </contour>
  </outline>
</glyph>
<glyph name="notequal" format="1">
  <advance width="491"/>
  <unicode hex="2260"/>
  <outline>
    <contour>
      <point x="466" y="82" type="line"/>
      <point x="231" y="82" type="line"/>
      <point x="167" y="-30" type="line"/>
      <point x="104" y="6" type="line"/>
      <point x="148" y="82" type="line"/>
      <point x="26" y="82" type="line"/>
      <point x="26" y="154" type="line"/>
      <point x="189" y="154" type="line"/>
      <point x="219" y="205" type="line"/>
      <point x="26" y="205" type="line"/>
      <point x="26" y="276" type="line"/>
      <point x="260" y="276" type="line"/>
      <point x="325" y="388" type="line"/>
      <point x="387" y="352" type="line"/>
      <point x="343" y="276" type="line"/>
      <point x="466" y="276" type="line"/>
      <point x="466" y="205" type="line"/>
      <point x="302" y="205" type="line"/>
      <point x="272" y="154" type="line"/>
      <point x="466" y="154" type="line"/>
    </contour>
  </outline>
</glyph>
<glyph name="lessequal" format="1">
  <advance width="389"/>
  <unicode hex="2264"/>
  <outline>
    <contour>
      <point x="51" y="307" type="line"/>
      <point x="283" y="498" type="line"/>
      <point x="338" y="440" type="line"/>
      <point x="167" y="307" type="line"/>
      <point x="338" y="174" type="line"/>
      <point x="283" y="117" type="line"/>
    </contour>
    <contour>
      <point x="364" y="0" type="line"/>
      <point x="364" y="72" type="line"/>
      <point x="26" y="72" type="line"/>
      <point x="26" y="0" type="line"/>
    </contour>
  </outline>
</glyph>
<glyph name="fi" format="1">
  <advance width="649"/>
  <unicode hex="FB01"/>
  <outline>
    <contour>
      <point x="82" y="450" type="line"/>
      <point x="180" y="450" type="line"/>
      <point x="180" y="645" type="line"/>
      <point x="399" y="645" type="line"/>
      <point x="399" y="574" type="line"/>
      <point x="256" y="574" type="line"/>
      <point x="256" y="450" type="line"/>
      <point x="399" y="450" type="line"/>
      <point x="399" y="379" type="line"/>
      <point x="256" y="379" type="line"/>
      <point x="256" y="0" type="line"/>
      <point x="180" y="0" type="line"/>
      <point x="180" y="379" type="line"/>
      <point x="82" y="379" type="line"/>
    </contour>
    <contour>
      <point x="492" y="450" type="line"/>
      <point x="492" y="0" type="line"/>
      <point x="567" y="0" type="line"/>
      <point x="567" y="451" type="line"/>
    </contour>
    <contour>
      <point x="492" y="676" type="line"/>
      <point x="492" y="543" type="line"/>
      <point x="567" y="543" type="line"/>
      <point x="567" y="676" type="line"/>
    </contour>
  </outline>
</glyph>
